<svg version="1.1" id="Layer_1" xmlns="http://www.w3.org/2000/svg" xmlns:xlink="http://www.w3.org/1999/xlink" x="0px" y="0px"
	 width="1094.945px" height="324.901px" viewBox="0 0 1094.945 324.901" enable-background="new 0 0 1094.945 324.901"
	 xml:space="preserve">
<g>
	<defs>
		<rect id="SVGID_1_" x="-203.118" y="-11.451" width="1500" height="336.352"/>
	</defs>
	<clipPath id="SVGID_2_">
		<use xlink:href="#SVGID_1_"  overflow="visible"/>
	</clipPath>
	<path clip-path="url(#SVGID_2_)" fill="#E7CFB2" d="M320.635,134.807c-1.02-0.45-2.65-0.77-3.5-1.47
		c-1.09-0.88-0.81,0.37-0.69-1.37c0.14-1.93,1.35-4.31,1.96-6.171c1.14-3.54,2.73-6.789,4.19-10.199c0.87-2.02,1.76-4.26,1.58-6.51
		c-0.16-2.1-3.98-6.38-5.73-8.5c-1.58-1.92-6.37-6.1-8.98-6.63c-3.036-0.599-4.616-3.821-6.492,1.15
		c-3.208,8.498-10.198,12.31-17.798,16.37c-3.43,1.83-6.79,3.83-10.14,5.79c-13.79,8.06-27.61,15.989-41.62,23.67
		c-7.03,3.85-7.12,4.02-14.48,7.19c-3.28,1.41-10.72,7.09-15.47,1.59c-8.43-9.77,8.4-26.62,12.56-31.03
		c1.8-1.91,5.43-4.17,5.65-7.09c0.24-3.19-3.9-5.6-5.88-7.51c-0.72-0.7-1.44-1.4-2.17-2.1c-0.46-0.46-0.94-0.91-1.41-1.36
		c-0.23,0.22-0.46,0.45-0.69,0.67c-1.06,0.58-1.88,2-2.86,2.77c-2.77,2.17-6.14,3.81-9.2,5.53c-6.46,3.63-12.91,7.18-18.82,11.67
		c-19.037,14.463-40.399,30.52-62.69,39.59c-3.49,1.42-7.1,2.489-10.62,3.819c-0.16-7.55,2.81-14.04,6.87-20.22
		c4.75-7.25,9.99-14.161,15.31-20.99c5.6-7.17,11.48-14.07,17.34-21.01c1.89-2.24,5.99-5.46,5.07-8.85
		c-0.82-3.01-5.38-5.57-7.61-7.52c2.65,2.32-44.44,35.27-49.01,37.95c-11.06,6.49-22.37,12.53-33.4,19.07
		c-10.91,6.47-20.9,15.261-32.62,19.96c-18.571,7.447-18.114,3.217-18.368,3.521c0.685-1.418,2.463-4.037,2.368-5.412
		c-0.06-0.809-1.38-2.438-2.05-2.97c-2.09-1.65-5.05-0.35-7.28,0.23c-0.04,2.77-0.49,5.409,1.44,7.551
		c1.78,1.969,3.41,4.09,5.36,5.889c8.65,7.97,32.01-4.5,42.29-10.469c8.79-5.101,17.66-11.071,26.6-15.921
		c5.52-2.99,22.76-15.22,26.76-12.97c-0.17,1.21-1.45,3.65-2,4.72c-1.76,3.41-3.83,6.68-5.44,10.17
		c-3.35,7.23-1.69,14.331,3.08,20.501c1.97,2.54,4.68,5.179,8.08,5.319c4.08,0.181,8.75-1.061,12.63-2.23
		c8.62-2.589,16.34-8.009,23.82-12.87c15.64-10.13,30.84-20.86,46.72-30.61c1.13,4.529-0.05,6.92-0.33,9.81
		c-0.21,2.219-0.22,5.49,0,7.801c1.562,16.543,18.342,23.545,31.996,15.41c10.596-6.314,21.15-12.321,31.724-18.691
		c9.14-5.5,17.93-11.551,27.2-16.83c5.51-3.14,6.71-3.64,16.08-9.14c5.55-3.26,6.48-5.51,8.56-6.44c1.4-0.62,2.44,2.25,3.06,2.69
		c-2.79,7.78-5.85,15.15-9.01,22.79c-1.61,3.89-2.17,7.3-0.24,11.18c1.3,2.61,3.4,5.49,6.48,5.981c3.12,0.509,5.85-1.581,7.97-3.591
		c1.4-1.33,2.72-2.75,4.14-4.07c1.36-1.25,3.51-2.36,4.49-3.95C327.285,137.427,322.795,135.747,320.635,134.807"/>
	<path clip-path="url(#SVGID_2_)" fill="#E7CFB2" d="M1086.782,158.615c-0.69-0.593-1.49-1.06-2.33-1.34
		c-3.03-1.006-6.32-0.361-9.49-0.032c-6.88,0.712-13.93-0.164-20.34-2.771c-6.271-2.55-10.851-7.165-16.25-11.074
		c-7.58-5.519-16.55-8.47-25.76-9.82c-5.271-0.779-10.682-1.07-15.97-0.611c-11.796,1.024-22.001,7.181-32.243,12.572
		c-5.189,2.731-10.49,5.344-16.146,6.97c-6.229,1.79-8.438-0.341-9.608-6.721c-0.83-4.5,0.681-10.09-1.889-13.25
		c-1.201-1.47-4.812-4.05-6.763-4.41c-2.308-0.43-5.227,0.406-7.528,0.66c-20.241,2.233-41.476,17.634-71.61,24.71
		c-4.788,1.124-11.88,1.16-16.59-0.38c-2.369-0.77-9.284-4.8-7.506-5.471c7.148-2.7,16.171-5.113,22.667-9.239
		c4.469-2.838,8.545-7.115,8.438-12.65c-0.121-5.957-4.075-11.974-10.06-13.188c-7.389-1.5-15.449-0.45-21.883,3.607
		c-7.288,4.596-11.248,12.926-11.976,21.323c-0.105,1.216-0.095,2.424-0.119,3.641c-0.018,0.885-0.247,1.629-1.103,2.056
		c-1.63,0.972-3.53,1.194-5.299,1.783c-4.49,1.335-8.579,2.274-13.307,1.555c-4.029-0.588-7.975-1.997-11.464-4.097
		c-3.82-2.29-7.08-5.41-10.92-7.65c-4.021-2.35-9.08-3.159-13.66-2.65c-10.344,1.14-21.043,7.816-30.494,11.986
		c-12.532,5.531-25.465,10.723-37.707,16.844c-3,1.139-6.189,1.05-9.319,1.529c0.271-3.239,0.771-5.359,2.49-8.199
		c9.768-16.117,23.054-29.762,36.976-42.32c13.933-12.568,28.189-25.418,43.834-35.771c11.53-7.63,22.41-16.27,33.65-24.32
		c2.6-1.86,5.189-3.77,7.88-5.49c1.569-1,3.319-1.93,4.5-3.4c3.26-4.08-0.391-11.13-2.24-15.12c-2.22-4.78-5.31-8.67-10.1-11.06
		c-4.301-2.14-9.11-2.94-13.801-3.79c-6.069-1.09-11.839-1.9-18.04-1.81c-6.799,0.1-13.6,0.17-20.399,0.38
		c-17.438,0.538-34.799,2.39-52.133,4.275c-16.974,1.845-34.706,1.931-51.487,4.775c-6.64,1.12,1.84,9.76,3.61,12.02
		c0.989-1.71,1.5-1.62,3.399-2.02c1.17-0.25,2.34-0.5,3.53-0.63c26.405-2.885,53.085-5.151,79.56-7.02
		c22.17-1.587,44.732-0.679,66.33,4.46c5.59,1.33,2.98,4.71-0.18,7.36c-4.29,3.61-8.6,7.2-13,10.68
		c-8.949,7.1-18.58,13.15-27.811,19.87c-9.31,6.77-18.119,14.32-26.949,21.7c-9,7.52-18,15.07-26.46,23.2
		c-8.181,7.86-16.54,15.91-23.61,24.8c-6.02,7.561-12.74,17.351-11.81,27.499c0.699,7.741,6.5,14.191,14.569,14.021
		c4.95-0.11,9.48-2.65,13.73-4.931c5.12-2.729,10.26-5.41,15.391-8.14c10.079-5.36,20.25-10.411,30.879-14.599
		c8.91-3.511,19.74-9.071,29.48-5.821c3.48,1.16,5.52,4.43,7.98,6.91c5.961,6.009,14.863,7.876,22.964,5.955
		c4.138-0.981,6.222-2.007,10.184-3.506c3.318-1.256,3.577-0.75,4.661,2.148c2.27,6.07,11.051,10.252,17.641,11.183
		c15.592,2.2,30.778-3.598,44.994-9.262c7.393-2.944,14.787-5.89,22.18-8.836c7.027-2.8,20.402-9.227,23.623-7.194
		c3.271,2.067,0.942,14.719,3.243,20.2c0.905,2.154,2.174,4.266,4.149,5.509c3.937,2.48,9.92,1.225,14.133,0.057
		c4.654-1.291,8.98-3.525,13.124-5.969c8.276-4.886,16.14-11.005,25.534-13.617c16.287-4.528,34.587-2.67,48.986,6.471
		c10.351,6.577,19.41,16.896,31.65,17.751c5.25,0.368,10.44-1.125,15.5-2.601c2.25-0.66,4.76-1.532,5.75-3.663
		C1089.612,162.544,1088.571,160.157,1086.782,158.615 M822.636,138.792c-0.252-0.688-0.752-2.999,0.432-6.832
		c1.969-6.369,8.711-9.395,14.512-10.662c2.231-0.487,16.946-2.66,16.18,1.806C852.884,128.202,834.646,135.214,822.636,138.792"/>
	<path clip-path="url(#SVGID_2_)" fill="#E7CFB2" d="M625.108,145.115c-0.202-0.212-0.403-0.419-0.599-0.62
		c-4.502-4.634-13.349-16.969-20.703-16.113c-2.705,0.315-5.662,2.275-8.135,3.387c-2.685,1.185-5.38,2.38-8.126,3.407
		c-2.864,1.07-12.426,4.603-14.082,0.755c-0.787-1.824-0.765-3.932-1.563-5.777c-0.681-1.583-1.729-3.03-2.788-4.372
		c-2.014-2.579-5.348-6.595-8.923-6.732c-2.149-0.083-4.75,1.28-6.795,1.909c-2.495,0.765-5.001,1.541-7.402,2.579
		c-5.955,2.579-10.957,6.595-17.217,8.514c-6.354,1.961-10.819,5.117-19.04,6.029c0.724-0.408,1.509-6.092,1.625-7.004
		c0.368-3.009,0.053-5.735-1.96-8.147c-0.839-1.028-1.804-1.94-2.706-2.873c-0.472-0.472-0.954-0.954-1.404-1.447
		c-0.912-1.017-0.326-0.797-1.52-0.283c-1.218,0.493-2.622,2.17-3.629,3.008c-1.184,0.997-2.359,1.972-3.533,2.968
		c-8.105,6.743-15.969,14.375-24.985,19.88c-4.72,2.873-9.532,5.568-14.565,7.853c-2.39,1.091-4.834,2.097-7.37,2.894
		c-1.667,0.535-4.006,1.51-5.747,0.671c-3.638-1.751,0.115-7.517,1.186-9.731c3.663-7.576,9.154-14.145,15.898-19.168
		c6.394-4.762,18.311-14.391,26.4-14.832c3.083-0.169,5.789,0.71,8.505,2.066c1.22,0.609,4.215,2.972,5.593,2.308
		c-0.073,0.035-3.144-4.527-3.454-4.862c-1.886-2.051-4.523-3.597-7.052-4.71c-12.599-5.549-27.449,4.968-37.839,12.127
		c-7.79,5.368-13.861,12.844-17.583,21.547c-3.544,8.284,0.44,18.149,7.56,23.287c3.849,2.769,8.807,2.82,13.076,1.038
		c5.199-2.16,10.117-5.598,14.877-8.587c5.138-3.177,10.233-6.438,15.246-9.804c4.771-3.198,9.163-6.878,13.745-10.328
		c2.255,3.723,3.806,7.696,7.602,10.223c9.301,6.144,23.508-0.021,34.873-5.504c3.669-1.772,7.047-3.471,9.856-4.656
		c2.61-1.101,5.432-2.894,8.251-3.418c4.047-0.755,4.78,4.268,6.188,7.015c1.792,3.512,4.382,6.836,8.062,8.493
		c4.037,1.813,8.305,1.069,12.289-0.462c5.567-2.138,11.334-3.428,17.069-5.043c2.382-0.671,4.624-1.51,6.826,0.052
		c1.709,1.217,4.351,6.847,7.454,9.605c2.621,2.317,4.059,3.889,7.508,2.516c0.85-0.336,2.475-0.891,2.664-1.575
		C629.52,150.033,627.19,147.289,625.108,145.115"/>
	<g clip-path="url(#SVGID_2_)">
		<path fill="#E7CFB2" d="M320.635,134.807c-1.02-0.45-2.65-0.77-3.5-1.47c-1.09-0.88-0.81,0.37-0.69-1.37
			c0.14-1.93,1.35-4.31,1.96-6.171c1.14-3.54,2.73-6.789,4.19-10.199c0.87-2.02,1.76-4.26,1.58-6.51c-0.16-2.1-3.98-6.38-5.73-8.5
			c-1.58-1.92-6.37-6.1-8.98-6.63c-3.036-0.599-4.616-3.821-6.492,1.15c-3.208,8.498-10.198,12.31-17.798,16.37
			c-3.43,1.83-6.79,3.83-10.14,5.79c-13.79,8.06-27.61,15.989-41.62,23.67c-7.03,3.85-7.12,4.02-14.48,7.19
			c-3.28,1.41-10.72,7.09-15.47,1.59c-8.43-9.77,8.4-26.62,12.56-31.03c1.8-1.91,5.43-4.17,5.65-7.09c0.24-3.19-3.9-5.6-5.88-7.51
			c-0.72-0.7-1.44-1.4-2.17-2.1c-0.46-0.46-0.94-0.91-1.41-1.36c-0.23,0.22-0.46,0.45-0.69,0.67c-1.06,0.58-1.88,2-2.86,2.77
			c-2.77,2.17-6.14,3.81-9.2,5.53c-6.46,3.63-12.91,7.18-18.82,11.67c-19.037,14.463-40.399,30.52-62.69,39.59
			c-3.49,1.42-7.1,2.489-10.62,3.819c-0.16-7.55,2.81-14.04,6.87-20.22c4.75-7.25,9.99-14.161,15.31-20.99
			c5.6-7.17,11.48-14.07,17.34-21.01c1.89-2.24,5.99-5.46,5.07-8.85c-0.82-3.01-5.38-5.57-7.61-7.52
			c2.65,2.32-44.44,35.27-49.01,37.95c-11.06,6.49-22.37,12.53-33.4,19.07c-10.91,6.47-20.9,15.261-32.62,19.96
			c-18.571,7.447-18.114,3.217-18.368,3.521c0.685-1.418,2.463-4.037,2.368-5.412c-0.06-0.809-1.38-2.438-2.05-2.97
			c-2.09-1.65-5.05-0.35-7.28,0.23c-0.04,2.77-0.49,5.409,1.44,7.551c1.78,1.969,3.41,4.09,5.36,5.889
			c8.65,7.97,32.01-4.5,42.29-10.469c8.79-5.101,17.66-11.071,26.6-15.921c5.52-2.99,22.76-15.22,26.76-12.97
			c-0.17,1.21-1.45,3.65-2,4.72c-1.76,3.41-3.83,6.68-5.44,10.17c-3.35,7.23-1.69,14.331,3.08,20.501
			c1.97,2.54,4.68,5.179,8.08,5.319c4.08,0.181,8.75-1.061,12.63-2.23c8.62-2.589,16.34-8.009,23.82-12.87
			c15.64-10.13,30.84-20.86,46.72-30.61c1.13,4.529-0.05,6.92-0.33,9.81c-0.21,2.219-0.22,5.49,0,7.801
			c1.562,16.543,18.342,23.545,31.996,15.41c10.596-6.314,21.15-12.321,31.724-18.691c9.14-5.5,17.93-11.551,27.2-16.83
			c5.51-3.14,6.71-3.64,16.08-9.14c5.55-3.26,6.48-5.51,8.56-6.44c1.4-0.62,2.44,2.25,3.06,2.69c-2.79,7.78-5.85,15.15-9.01,22.79
			c-1.61,3.89-2.17,7.3-0.24,11.18c1.3,2.61,3.4,5.49,6.48,5.981c3.12,0.509,5.85-1.581,7.97-3.591c1.4-1.33,2.72-2.75,4.14-4.07
			c1.36-1.25,3.51-2.36,4.49-3.95C327.285,137.427,322.795,135.747,320.635,134.807"/>
		<path fill="#E7CFB2" d="M423.465,1.127c-1.97,0-2.07,0.11-3.18,1.75c-0.59,0.88-1.18,1.75-1.77,2.63
			c-1.18,1.75-2.36,3.5-3.54,5.25c-16.872,25.023-33.91,53.805-49.18,80.51c-9.99,17.47-20.81,37.47-20.58,39.92
			c0.46,4.77,8.22,13.76,13,14.08c0,0,8.418-19.39,18.89-24.75c3.692-1.89,7.53-3.94,11.61-4.8c3.19-0.68,6.47-0.51,9.67,0.03
			c2.8,0.48,7.18,0.82,9.08,3.29c1.63,2.11,0.87,5.11,0.27,7.45c-1.41,5.5-4.62,10.28-9.32,13.49c-5.68,3.87-13.1,6.19-19.67,8.04
			c-7.36,2.07-14.83,3.09-22.13,5.48c-2.14,0.71-4.28,1.43-6.43,2.12c-0.69,0.22-1.96,0.36-2.54,0.79
			c-0.7,0.51-0.52,0.521-0.74,1.47c-0.52,2.189,0.46,5.021,2.31,6.301c2.71,1.889,7.65,2.069,10.81,2.189
			c3.61,0.13,6.88-0.689,10.32-1.7c7.76-2.279,15.43-4.88,23.01-7.72c6.95-2.6,14.35-4.83,19.44-10.54
			c4.17-4.69,6.78-11.611,5.18-17.85c-0.93-3.61-3.15-6.19-5.38-9.06c-1.72-2.24-3.3-4.62-5.311-6.62
			c-5.633-5.574-14.219-6.91-21.817-6.236c-3.842,0.341-7.794,1.165-11.352,2.688c-2.13,0.912-5.356,2.275-8.32,4.968
			c-0.475,0.432,3.39-4.47,2.8-4.47c5.09-8.42,10.12-16.88,15.29-25.25c9.49-15.39,17.91-31.29,26.96-46.93
			c4.16-7.19,9.69-13.77,13.3-21.23c0.82-1.7,1.62-2.98,3-4.26c1.12-1.03,2.14-2.09,2.02-3.72
			C428.935,5.367,425.515,2.987,423.465,1.127"/>
		<path fill="#E7CFB2" d="M1086.782,158.615c-0.69-0.593-1.49-1.06-2.33-1.34c-3.03-1.006-6.32-0.361-9.49-0.032
			c-6.88,0.712-13.93-0.164-20.34-2.771c-6.271-2.55-10.851-7.165-16.25-11.074c-7.58-5.519-16.55-8.47-25.76-9.82
			c-5.271-0.779-10.682-1.07-15.97-0.611c-11.796,1.024-22.001,7.181-32.243,12.572c-5.189,2.731-10.49,5.344-16.146,6.97
			c-6.229,1.79-8.438-0.341-9.608-6.721c-0.83-4.5,0.681-10.09-1.889-13.25c-1.201-1.47-4.812-4.05-6.763-4.41
			c-2.308-0.43-5.227,0.406-7.528,0.66c-20.241,2.233-41.476,17.634-71.61,24.71c-4.788,1.124-11.88,1.16-16.59-0.38
			c-2.369-0.77-9.284-4.8-7.506-5.471c7.148-2.7,16.171-5.113,22.667-9.239c4.469-2.838,8.545-7.115,8.438-12.65
			c-0.121-5.957-4.075-11.974-10.06-13.188c-7.389-1.5-15.449-0.45-21.883,3.607c-7.288,4.596-11.248,12.926-11.976,21.323
			c-0.105,1.216-0.095,2.424-0.119,3.641c-0.018,0.885-0.247,1.629-1.103,2.056c-1.63,0.972-3.53,1.194-5.299,1.783
			c-4.49,1.335-8.579,2.274-13.307,1.555c-4.029-0.588-7.975-1.997-11.464-4.097c-3.82-2.29-7.08-5.41-10.92-7.65
			c-4.021-2.35-9.08-3.159-13.66-2.65c-10.344,1.14-21.043,7.816-30.494,11.986c-12.532,5.531-25.465,10.723-37.707,16.844
			c-3,1.139-6.189,1.05-9.319,1.529c0.271-3.239,0.771-5.359,2.49-8.199c9.768-16.117,23.054-29.762,36.976-42.32
			c13.933-12.568,28.189-25.418,43.834-35.771c11.53-7.63,22.41-16.27,33.65-24.32c2.6-1.86,5.189-3.77,7.88-5.49
			c1.569-1,3.319-1.93,4.5-3.4c3.26-4.08-0.391-11.13-2.24-15.12c-2.22-4.78-5.31-8.67-10.1-11.06
			c-4.301-2.14-9.11-2.94-13.801-3.79c-6.069-1.09-11.839-1.9-18.04-1.81c-6.799,0.1-13.6,0.17-20.399,0.38
			c-17.438,0.538-34.799,2.39-52.133,4.275c-16.974,1.845-34.706,1.931-51.487,4.775c-6.64,1.12,1.84,9.76,3.61,12.02
			c0.989-1.71,1.5-1.62,3.399-2.02c1.17-0.25,2.34-0.5,3.53-0.63c26.405-2.885,53.085-5.151,79.56-7.02
			c22.17-1.587,44.732-0.679,66.33,4.46c5.59,1.33,2.98,4.71-0.18,7.36c-4.29,3.61-8.6,7.2-13,10.68
			c-8.949,7.1-18.58,13.15-27.811,19.87c-9.31,6.77-18.119,14.32-26.949,21.7c-9,7.52-18,15.07-26.46,23.2
			c-8.181,7.86-16.54,15.91-23.61,24.8c-6.02,7.561-12.74,17.351-11.81,27.499c0.699,7.741,6.5,14.191,14.569,14.021
			c4.95-0.11,9.48-2.65,13.73-4.931c5.12-2.729,10.26-5.41,15.391-8.14c10.079-5.36,20.25-10.411,30.879-14.599
			c8.91-3.511,19.74-9.071,29.48-5.821c3.48,1.16,5.52,4.43,7.98,6.91c5.961,6.009,14.863,7.876,22.964,5.955
			c4.138-0.981,6.222-2.007,10.184-3.506c3.318-1.256,3.577-0.75,4.661,2.148c2.27,6.07,11.051,10.252,17.641,11.183
			c15.592,2.2,30.778-3.598,44.994-9.262c7.393-2.944,14.787-5.89,22.18-8.836c7.027-2.8,20.402-9.227,23.623-7.194
			c3.271,2.067,0.942,14.719,3.243,20.2c0.905,2.154,2.174,4.266,4.149,5.509c3.937,2.48,9.92,1.225,14.133,0.057
			c4.654-1.291,8.98-3.525,13.124-5.969c8.276-4.886,16.14-11.005,25.534-13.617c16.287-4.528,34.587-2.67,48.986,6.471
			c10.351,6.577,19.41,16.896,31.65,17.751c5.25,0.368,10.44-1.125,15.5-2.601c2.25-0.66,4.76-1.532,5.75-3.663
			C1089.612,162.544,1088.571,160.157,1086.782,158.615 M822.636,138.792c-0.252-0.688-0.752-2.999,0.432-6.832
			c1.969-6.369,8.711-9.395,14.512-10.662c2.231-0.487,16.946-2.66,16.18,1.806C852.884,128.202,834.646,135.214,822.636,138.792"/>
		<path fill="#E7CFB2" d="M625.108,145.115c-0.202-0.212-0.403-0.419-0.599-0.62c-4.502-4.634-13.349-16.969-20.703-16.113
			c-2.705,0.315-5.662,2.275-8.135,3.387c-2.685,1.185-5.38,2.38-8.126,3.407c-2.864,1.07-12.426,4.603-14.082,0.755
			c-0.787-1.824-0.765-3.932-1.563-5.777c-0.681-1.583-1.729-3.03-2.788-4.372c-2.014-2.579-5.348-6.595-8.923-6.732
			c-2.149-0.083-4.75,1.28-6.795,1.909c-2.495,0.765-5.001,1.541-7.402,2.579c-5.955,2.579-10.957,6.595-17.217,8.514
			c-6.354,1.961-10.819,5.117-19.04,6.029c0.724-0.408,1.509-6.092,1.625-7.004c0.368-3.009,0.053-5.735-1.96-8.147
			c-0.839-1.028-1.804-1.94-2.706-2.873c-0.472-0.472-0.954-0.954-1.404-1.447c-0.912-1.017-0.326-0.797-1.52-0.283
			c-1.218,0.493-2.622,2.17-3.629,3.008c-1.184,0.997-2.359,1.972-3.533,2.968c-8.105,6.743-15.969,14.375-24.985,19.88
			c-4.72,2.873-9.532,5.568-14.565,7.853c-2.39,1.091-4.834,2.097-7.37,2.894c-1.667,0.535-4.006,1.51-5.747,0.671
			c-3.638-1.751,0.115-7.517,1.186-9.731c3.663-7.576,9.154-14.145,15.898-19.168c6.394-4.762,18.311-14.391,26.4-14.832
			c3.083-0.169,5.789,0.71,8.505,2.066c1.22,0.609,4.215,2.972,5.593,2.308c-0.073,0.035-3.144-4.527-3.454-4.862
			c-1.886-2.051-4.523-3.597-7.052-4.71c-12.599-5.549-27.449,4.968-37.839,12.127c-7.79,5.368-13.861,12.844-17.583,21.547
			c-3.544,8.284,0.44,18.149,7.56,23.287c3.849,2.769,8.807,2.82,13.076,1.038c5.199-2.16,10.117-5.598,14.877-8.587
			c5.138-3.177,10.233-6.438,15.246-9.804c4.771-3.198,9.163-6.878,13.745-10.328c2.255,3.723,3.806,7.696,7.602,10.223
			c9.301,6.144,23.508-0.021,34.873-5.504c3.669-1.772,7.047-3.471,9.856-4.656c2.61-1.101,5.432-2.894,8.251-3.418
			c4.047-0.755,4.78,4.268,6.188,7.015c1.792,3.512,4.382,6.836,8.062,8.493c4.037,1.813,8.305,1.069,12.289-0.462
			c5.567-2.138,11.334-3.428,17.069-5.043c2.382-0.671,4.624-1.51,6.826,0.052c1.709,1.217,4.351,6.847,7.454,9.605
			c2.621,2.317,4.059,3.889,7.508,2.516c0.85-0.336,2.475-0.891,2.664-1.575C629.52,150.033,627.19,147.289,625.108,145.115"/>
	</g>
</g>
<g>
	<g>
		<path fill="#E7CFB2" d="M53.558,241.025H38.855l-3.823,8.737h-4.789l13.568-29.993h5.083l13.568,29.993H57.38L53.558,241.025z
			 M46.165,223.886l-5.629,13.274h11.384L46.165,223.886z"/>
		<path fill="#E7CFB2" d="M121.72,219.77h15.458c6.595,0,10.04,3.024,10.04,8.611c0,5.629-3.444,9.368-9.746,9.368h-11.3v12.014
			h-4.453V219.77z M136.884,233.884c4.411,0,5.881-2.395,5.881-5.419c0-2.856-1.68-4.831-5.083-4.831h-11.51v10.25H136.884z"/>
		<path fill="#E7CFB2" d="M197.744,235.648h-20.416v14.114h-4.453V219.77h4.453v12.014h20.416V219.77h4.453v29.993h-4.453V235.648z"
			/>
		<path fill="#E7CFB2" d="M230.037,219.77h4.453v29.993h-4.453V219.77z"/>
		<path fill="#E7CFB2" d="M262.461,219.77h4.453v26.129h18.231v3.864h-22.684V219.77z"/>
		<path fill="#E7CFB2" d="M324.791,219.014c12.056,0,16.677,8.065,16.677,15.752c0,7.688-4.621,15.753-16.677,15.753
			s-16.677-8.065-16.677-15.753C308.114,227.079,312.735,219.014,324.791,219.014z M324.791,222.878
			c-6.848,0-12.225,3.948-12.225,11.888s5.377,11.889,12.225,11.889c6.847,0,12.224-3.949,12.224-11.889
			S331.638,222.878,324.791,222.878z"/>
		<path fill="#E7CFB2" d="M369.183,239.891c0.084,5.377,5.125,6.764,9.662,6.764c4.747,0,8.107-1.807,8.107-5.083
			c0-2.73-2.143-3.864-5.587-4.453l-6.805-1.134c-3.571-0.588-8.906-2.017-8.906-7.855c0-5.461,4.327-9.115,12.014-9.115
			c6.007,0,12.35,2.184,12.771,9.409h-4.453c-0.378-2.353-1.722-5.545-8.905-5.545c-3.277,0-6.974,1.387-6.974,4.915
			c0,1.849,1.218,3.318,4.915,3.948l7.352,1.261c2.352,0.42,9.031,1.554,9.031,7.688c0,7.645-6.847,9.829-12.896,9.829
			c-6.763,0-13.779-2.353-13.779-10.628H369.183z"/>
		<path fill="#E7CFB2" d="M431.345,219.014c12.056,0,16.677,8.065,16.677,15.752c0,7.688-4.621,15.753-16.677,15.753
			s-16.677-8.065-16.677-15.753C414.667,227.079,419.289,219.014,431.345,219.014z M431.345,222.878
			c-6.848,0-12.225,3.948-12.225,11.888s5.377,11.889,12.225,11.889c6.847,0,12.224-3.949,12.224-11.889
			S438.192,222.878,431.345,222.878z"/>
		<path fill="#E7CFB2" d="M474.014,219.77h15.458c6.595,0,10.04,3.024,10.04,8.611c0,5.629-3.444,9.368-9.746,9.368h-11.3v12.014
			h-4.453V219.77z M489.178,233.884c4.411,0,5.881-2.395,5.881-5.419c0-2.856-1.68-4.831-5.083-4.831h-11.51v10.25H489.178z"/>
		<path fill="#E7CFB2" d="M550.037,235.648h-20.416v14.114h-4.453V219.77h4.453v12.014h20.416V219.77h4.453v29.993h-4.453V235.648z"
			/>
		<path fill="#E7CFB2" d="M603.88,219.77h5.419l-13.232,17.433v12.561h-4.452v-12.351l-13.148-17.643h5.671l9.788,13.652
			L603.88,219.77z"/>
		<path fill="#E7CFB2" d="M683.301,219.014c12.056,0,16.677,8.065,16.677,15.752c0,7.688-4.621,15.753-16.677,15.753
			c-12.057,0-16.677-8.065-16.677-15.753C666.624,227.079,671.244,219.014,683.301,219.014z M683.301,222.878
			c-6.848,0-12.225,3.948-12.225,11.888s5.377,11.889,12.225,11.889c6.847,0,12.224-3.949,12.224-11.889
			S690.147,222.878,683.301,222.878z"/>
		<path fill="#E7CFB2" d="M725.802,219.77h23.23v3.864h-18.777v8.864h17.896v3.864h-17.896v13.4h-4.453V219.77z"/>
		<path fill="#E7CFB2" d="M809.171,219.77h4.453v26.129h18.231v3.864h-22.685V219.77z"/>
		<path fill="#E7CFB2" d="M856.841,219.77h4.453v29.993h-4.453V219.77z"/>
		<path fill="#E7CFB2" d="M911.907,219.77h4.788l-13.147,29.993h-4.747l-13.358-29.993h5.041l10.796,25.372L911.907,219.77z"/>
		<path fill="#E7CFB2" d="M940.84,219.77h4.453v29.993h-4.453V219.77z"/>
		<path fill="#E7CFB2" d="M977.843,225.902h-0.084v23.86h-4.453V219.77h5.167l19.281,23.86h0.084v-23.86h4.453v29.993h-5.167
			L977.843,225.902z"/>
		<path fill="#E7CFB2" d="M1046.347,233.59h13.778v16.173h-3.192l-0.756-4.285c-1.975,2.311-5.167,5.041-11.51,5.041
			c-12.015,0-15.837-8.653-15.837-15.248c0-11.595,7.939-16.257,15.711-16.257c6.175,0,13.19,1.932,15.08,10.207h-4.704
			c-1.387-4.158-4.495-6.343-10.166-6.343c-7.939,0-11.469,5.629-11.469,12.014c0,8.486,5.419,11.763,11.679,11.763
			c6.511,0,10.754-3.865,11.216-9.2h-9.83V233.59z"/>
	</g>
	<g>
		<path fill="#E7CFB2" d="M199.714,277.771h16.677c6.385,0,9.242,2.814,9.242,7.52c0,3.654-1.933,5.461-4.369,6.343v0.084
			c3.445,0.798,5.671,3.066,5.671,7.394c0,4.284-2.983,8.653-9.494,8.653h-17.728V277.771z M216.307,290.163
			c3.276,0,4.873-1.806,4.873-4.2c0-2.73-1.47-4.327-5.125-4.327h-11.888v8.527H216.307z M216.223,303.9
			c4.957,0,6.259-2.521,6.259-5.083c0-2.353-1.344-4.789-5.881-4.789h-12.434v9.872H216.223z"/>
		<path fill="#E7CFB2" d="M275.318,277.771h5.419l-13.232,17.433v12.561h-4.453v-12.351l-13.148-17.643h5.671l9.788,13.652
			L275.318,277.771z"/>
		<path fill="#E7CFB2" d="M339.699,277.771h15.207c8.989,0,13.106,5.881,13.106,14.576c0,8.359-3.654,15.417-12.854,15.417h-15.459
			V277.771z M354.948,303.9c7.309,0,8.611-6.134,8.611-11.469c0-5.293-1.722-10.796-9.452-10.796h-9.956V303.9H354.948z"/>
		<path fill="#E7CFB2" d="M409.17,277.016c12.056,0,16.677,8.065,16.677,15.752c0,7.688-4.621,15.753-16.677,15.753
			s-16.677-8.065-16.677-15.753C392.493,285.081,397.114,277.016,409.17,277.016z M409.17,280.88
			c-6.848,0-12.225,3.948-12.225,11.888s5.377,11.889,12.225,11.889c6.847,0,12.224-3.949,12.224-11.889
			S416.017,280.88,409.17,280.88z"/>
		<path fill="#E7CFB2" d="M456.375,283.904h-0.084v23.86h-4.453v-29.993h5.167l19.282,23.86h0.084v-23.86h4.453v29.993h-5.167
			L456.375,283.904z"/>
		<path fill="#E7CFB2" d="M513.159,283.904h-0.084v23.86h-4.453v-29.993h5.167l19.282,23.86h0.084v-23.86h4.453v29.993h-5.167
			L513.159,283.904z"/>
		<path fill="#E7CFB2" d="M585.149,299.027h-14.703l-3.822,8.737h-4.789l13.568-29.993h5.083l13.568,29.993h-5.083L585.149,299.027z
			 M577.756,281.888l-5.629,13.274h11.384L577.756,281.888z"/>
		<path fill="#E7CFB2" d="M663.226,293.146l-5.461,4.83v9.788h-4.453v-29.993h4.453v15.08l16.761-15.08h6.302l-14.241,12.434
			l15.039,17.56h-6.133L663.226,293.146z"/>
		<path fill="#E7CFB2" d="M725.933,299.027h-14.703l-3.822,8.737h-4.789l13.568-29.993h5.083l13.568,29.993h-5.083L725.933,299.027z
			 M718.539,281.888l-5.629,13.274h11.384L718.539,281.888z"/>
		<path fill="#E7CFB2" d="M759.066,277.771h18.567c6.007,0,8.191,4.158,8.191,7.981c0,3.654-1.764,6.343-5.041,7.394v0.084
			c2.646,0.378,4.201,2.856,4.369,6.385c0.252,5.587,0.42,6.974,1.428,8.149h-4.704c-0.715-0.84-0.715-2.101-0.925-5.713
			c-0.294-5.377-2.1-7.016-5.797-7.016H763.52v12.729h-4.453V277.771z M775.954,291.172c4.368,0,5.419-2.646,5.419-4.747
			c0-2.856-1.723-4.789-5.293-4.789H763.52v9.536H775.954z"/>
		<path fill="#E7CFB2" d="M831.688,299.027h-14.703l-3.822,8.737h-4.789l13.568-29.993h5.083l13.568,29.993h-5.083L831.688,299.027z
			 M824.294,281.888l-5.629,13.274h11.384L824.294,281.888z"/>
		<path fill="#E7CFB2" d="M869.358,283.904h-0.084v23.86h-4.453v-29.993h5.167l19.281,23.86h0.084v-23.86h4.453v29.993h-5.167
			L869.358,283.904z"/>
	</g>
</g>
<g>
</g>
</svg>
